# This file uses centimeters as units for non-parametric coordinates.

mtllib Pillar.mtl
g default
v -0.050000 0.603635 0.040001
v -0.040001 0.603635 0.050000
v 0.040001 0.603635 0.050000
v 0.050000 0.603635 0.040001
v -0.050000 0.603635 -0.040001
v -0.040001 0.603635 -0.050000
v 0.040001 0.603635 -0.050000
v 0.050000 0.603635 -0.040001
v -0.050000 0.013634 0.040001
v -0.040001 0.013634 0.050000
v 0.050000 0.013634 0.040001
v 0.040001 0.013634 0.050000
v -0.050000 0.013634 -0.040001
v -0.040001 0.013634 -0.050000
v 0.050000 0.013634 -0.040001
v 0.040001 0.013634 -0.050000
v 0.038634 0.613634 0.040001
v 0.040001 0.612608 0.041026
v 0.041026 0.612608 0.040001
v 0.040001 0.613634 0.038634
v 0.031695 0.707330 0.033095
v 0.031151 0.705478 0.032501
v 0.032500 0.705491 0.031166
v 0.033095 0.707330 0.031695
v -0.040001 0.613634 0.038634
v -0.041026 0.612608 0.040001
v -0.040001 0.612608 0.041026
v -0.038634 0.613634 0.040001
v -0.033095 0.707330 0.031695
v -0.032501 0.705478 0.031151
v -0.031166 0.705491 0.032500
v -0.031695 0.707330 0.033095
v 0.040001 0.613634 -0.038634
v 0.041026 0.612608 -0.040001
v 0.040001 0.612608 -0.041026
v 0.038634 0.613634 -0.040001
v 0.033095 0.707330 -0.031695
v 0.032501 0.705478 -0.031151
v 0.031166 0.705491 -0.032500
v 0.031695 0.707330 -0.033095
v -0.038634 0.613634 -0.040001
v -0.040001 0.612608 -0.041026
v -0.041026 0.612608 -0.040001
v -0.040001 0.613634 -0.038634
v -0.031695 0.707330 -0.033095
v -0.031151 0.705478 -0.032501
v -0.032500 0.705491 -0.031166
v -0.033095 0.707330 -0.031695
v 0.098481 0.789581 0.099813
v 0.097769 0.787777 0.099153
v 0.099145 0.787767 0.097743
v 0.099813 0.789581 0.098481
v -0.099813 0.789581 0.098481
v -0.099153 0.787777 0.097769
v -0.097743 0.787767 0.099145
v -0.098481 0.789581 0.099813
v 0.099813 0.789581 -0.098481
v 0.099153 0.787777 -0.097769
v 0.097743 0.787767 -0.099145
v 0.098481 0.789581 -0.099813
v -0.098481 0.789581 -0.099813
v -0.097769 0.787777 -0.099153
v -0.099145 0.787767 -0.097743
v -0.099813 0.789581 -0.098481
v 0.051451 0.763220 0.052765
v 0.052799 0.763242 0.051432
v 0.050914 0.762660 0.050914
v 0.099813 0.792566 0.098485
v 0.098088 0.793406 0.096705
v 0.096668 0.793393 0.098068
v 0.098485 0.792566 0.099813
v 0.098485 0.792566 -0.099813
v 0.096705 0.793406 -0.098088
v 0.098068 0.793393 -0.096668
v 0.099813 0.792566 -0.098485
v 0.050914 0.762660 -0.050914
v 0.052765 0.763220 -0.051451
v 0.051451 0.763220 -0.052765
v -0.052765 0.763220 0.051451
v -0.051432 0.763242 0.052799
v -0.050914 0.762660 0.050914
v -0.098485 0.792566 0.099813
v -0.096705 0.793406 0.098088
v -0.098068 0.793393 0.096668
v -0.099813 0.792566 0.098485
v -0.051451 0.763220 -0.052765
v -0.052799 0.763242 -0.051432
v -0.050914 0.762660 -0.050914
v -0.099813 0.792566 -0.098485
v -0.098088 0.793406 -0.096705
v -0.096668 0.793393 -0.098068
v -0.098485 0.792566 -0.099813
vt 0.321652 0.711589
vt 0.321652 0.001874
vt 0.417887 0.001874
vt 0.417887 0.711589
vt 0.309624 0.711589
vt 0.309624 0.001874
vt 0.429915 0.711589
vt 0.429915 0.001874
vt 0.323297 0.723616
vt 0.321652 0.722383
vt 0.417887 0.722383
vt 0.416242 0.723616
vt 0.320419 0.722383
vt 0.419120 0.722383
vt 0.332279 0.834111
vt 0.407241 0.834096
vt 0.321652 0.723616
vt 0.330673 0.834096
vt 0.417887 0.723616
vt 0.408864 0.834111
vt 0.331643 0.836324
vt 0.407896 0.836324
vt 0.329959 0.836324
vt 0.409580 0.836324
vt 0.487376 0.933094
vt 0.252194 0.933082
vt 0.251306 0.935264
vt 0.488233 0.935264
vt 0.249704 0.935264
vt 0.250498 0.933094
vt 0.489031 0.933082
vt 0.489835 0.935264
vt 0.488238 0.938854
vt 0.251301 0.938854
vt 0.249704 0.938854
vt 0.489835 0.938854
vt 0.073940 0.711589
vt 0.073940 0.001874
vt 0.170175 0.001874
vt 0.170175 0.711589
vt 0.061913 0.711589
vt 0.061913 0.001874
vt 0.182203 0.711589
vt 0.182203 0.001874
vt 0.170175 0.722383
vt 0.168531 0.723616
vt 0.075585 0.723616
vt 0.073940 0.722383
vt 0.072707 0.722383
vt 0.171409 0.722383
vt 0.084568 0.834111
vt 0.159529 0.834096
vt 0.073940 0.723616
vt 0.082962 0.834096
vt 0.170175 0.723616
vt 0.161153 0.834111
vt 0.160184 0.836324
vt 0.083931 0.836324
vt 0.082247 0.836324
vt 0.161868 0.836324
vt 0.239664 0.933094
vt 0.004482 0.933082
vt 0.240521 0.935264
vt 0.003594 0.935264
vt 0.241320 0.933082
vt 0.242124 0.935264
vt 0.240526 0.938854
vt 0.003590 0.938854
vt 0.001992 0.935264
vt 0.002786 0.933094
vt 0.242124 0.938854
vt 0.001992 0.938854
vt 0.918547 0.327132
vt 0.916862 0.325448
vt 0.996311 0.245997
vt 0.998008 0.247653
vt 0.918547 0.403385
vt 0.997998 0.482834
vt 0.916862 0.405069
vt 0.996342 0.484531
vt 0.910727 0.325458
vt 0.909043 0.327142
vt 0.829592 0.247694
vt 0.831247 0.245997
vt 0.909043 0.403395
vt 0.829582 0.482875
vt 0.910727 0.405079
vt 0.831278 0.484531
vt 0.760404 0.060049
vt 0.762631 0.060695
vt 0.762631 0.183185
vt 0.760364 0.183807
vt 0.762008 0.058428
vt 0.885120 0.060695
vt 0.885120 0.183185
vt 0.761985 0.185411
vt 0.705909 0.005657
vt 0.705884 0.238267
vt 0.707549 0.003949
vt 0.885766 0.058469
vt 0.887347 0.060049
vt 0.887347 0.183830
vt 0.885743 0.185452
vt 0.707593 0.239906
vt 0.703810 0.003471
vt 0.703810 0.240408
vt 0.705407 0.001874
vt 0.940158 0.003973
vt 0.941866 0.005613
vt 0.941842 0.238223
vt 0.940202 0.239931
vt 0.705407 0.242005
vt 0.942344 0.001874
vt 0.943941 0.003471
vt 0.943941 0.240408
vt 0.942344 0.242005
vt 0.580017 0.718458
vt 0.578784 0.716813
vt 0.580017 0.715580
vt 0.581662 0.716813
vt 0.580017 0.811404
vt 0.578784 0.813048
vt 0.567989 0.813048
vt 0.567989 0.716813
vt 0.581662 0.813048
vt 0.580017 0.814282
vt 0.587797 0.716813
vt 0.589442 0.715580
vt 0.590675 0.716813
vt 0.589442 0.718458
vt 0.601470 0.813048
vt 0.590675 0.813048
vt 0.589442 0.811404
vt 0.601470 0.716813
vt 0.589442 0.814282
vt 0.587797 0.813048
vt 0.497221 0.711589
vt 0.497221 0.001874
vt 0.593455 0.001874
vt 0.593455 0.711589
vt 0.600515 0.001874
vt 0.696750 0.001874
vt 0.696750 0.711589
vt 0.600515 0.711589
vt 0.790630 0.356477
vt 0.791285 0.358705
vt 0.715032 0.358705
vt 0.715668 0.356492
vt 0.706686 0.245997
vt 0.799631 0.245997
vt 0.692204 0.715580
vt 0.691568 0.717793
vt 0.616606 0.717808
vt 0.615951 0.715580
vt 0.700550 0.828288
vt 0.607605 0.828288
vt 0.817686 0.246859
vt 0.819856 0.246002
vt 0.819856 0.482929
vt 0.817674 0.482040
vt 0.823446 0.245997
vt 0.823446 0.482933
vt 0.809356 0.246002
vt 0.811539 0.246890
vt 0.811527 0.482072
vt 0.809356 0.482929
vt 0.805767 0.482934
vt 0.805767 0.245997
vn -0.707108 0.707106 0.000000
vn -0.707108 0.707105 0.000000
vn -0.707108 0.707106 0.000000
vn -0.707108 0.707106 0.000000
vn -0.707108 0.707105 0.000000
vn -0.707108 0.707106 0.000000
vn -0.707107 0.000000 0.707107
vn -0.707107 0.000000 0.707107
vn -0.707107 0.000000 0.707107
vn -0.707107 0.000000 0.707107
vn 0.707107 0.000000 0.707107
vn 0.707107 0.000000 0.707107
vn 0.707107 0.000000 0.707107
vn 0.707107 0.000000 0.707107
vn -0.707107 0.000000 -0.707107
vn -0.707107 0.000000 -0.707107
vn -0.707107 0.000000 -0.707107
vn -0.707107 0.000000 -0.707107
vn 0.000000 0.707105 -0.707109
vn 0.000000 0.707105 -0.707109
vn 0.000000 0.707105 -0.707109
vn 0.000000 0.707105 -0.707109
vn 0.000000 0.707105 -0.707109
vn 0.000000 0.707105 -0.707109
vn 0.707107 0.000000 -0.707107
vn 0.707107 0.000000 -0.707107
vn 0.707107 0.000000 -0.707107
vn 0.707107 0.000000 -0.707107
vn 0.000000 0.000000 1.000000
vn 0.000000 0.000000 1.000000
vn 0.000000 0.000000 1.000000
vn 0.000000 0.000000 1.000000
vn 0.000000 0.000000 -1.000000
vn 0.000000 0.000000 -1.000000
vn 0.000000 0.000000 -1.000000
vn 0.000000 0.000000 -1.000000
vn 1.000000 0.000000 0.000000
vn 1.000000 0.000000 0.000000
vn 1.000000 0.000000 0.000000
vn 1.000000 0.000000 0.000000
vn -1.000000 0.000000 0.000000
vn -1.000000 0.000000 0.000000
vn -1.000000 0.000000 0.000000
vn -1.000000 0.000000 0.000000
vn -0.577349 0.577350 0.577352
vn -0.577349 0.577350 0.577352
vn -0.572309 0.587300 0.572312
vn -0.572309 0.587300 0.572312
vn -0.577349 0.577350 -0.577352
vn -0.572309 0.587300 -0.572312
vn -0.572309 0.587300 -0.572312
vn -0.577349 0.577350 -0.577352
vn 0.577349 0.577350 -0.577352
vn 0.572309 0.587300 -0.572312
vn 0.572309 0.587300 -0.572312
vn 0.577349 0.577350 -0.577352
vn 0.572309 0.587300 0.572312
vn 0.572309 0.587300 0.572312
vn 0.577349 0.577350 0.577352
vn 0.577349 0.577350 0.577352
vn 0.707108 0.707106 -0.000000
vn 0.707108 0.707105 -0.000000
vn 0.707108 0.707106 -0.000000
vn 0.707108 0.707106 -0.000000
vn 0.707108 0.707105 -0.000000
vn 0.707108 0.707106 -0.000000
vn -0.000000 0.707105 0.707109
vn -0.000000 0.707105 0.707109
vn -0.000000 0.707105 0.707109
vn -0.000000 0.707105 0.707109
vn -0.000000 0.707105 0.707109
vn -0.000000 0.707105 0.707109
vn 0.700304 0.114527 0.704597
vn 0.700304 0.114527 0.704597
vn 0.700304 0.114527 0.704597
vn 0.700305 0.114527 0.704597
vn 0.466438 -0.753307 0.463642
vn 0.466424 -0.753324 0.463628
vn 0.465811 -0.754152 0.462898
vn 0.465909 -0.754032 0.462995
vn -0.000001 0.073465 0.997298
vn -0.000000 -0.633052 0.774109
vn -0.000000 -0.633045 0.774115
vn -0.000001 0.073485 0.997296
vn 0.774115 -0.633045 -0.000000
vn 0.997296 0.073485 0.000001
vn 0.997298 0.073465 0.000001
vn 0.774109 -0.633052 -0.000000
vn -0.704597 0.114527 0.700305
vn -0.704597 0.114527 0.700305
vn -0.704597 0.114527 0.700305
vn -0.704597 0.114527 0.700305
vn -0.463625 -0.753315 0.466443
vn -0.463611 -0.753332 0.466429
vn -0.462881 -0.754160 0.465816
vn -0.462977 -0.754040 0.465914
vn -0.997298 0.073465 -0.000001
vn -0.774109 -0.633052 0.000000
vn -0.774115 -0.633045 0.000000
vn -0.997296 0.073485 -0.000001
vn 0.704597 0.114527 -0.700305
vn 0.704597 0.114527 -0.700305
vn 0.704597 0.114527 -0.700305
vn 0.704597 0.114527 -0.700305
vn 0.463625 -0.753315 -0.466443
vn 0.463611 -0.753332 -0.466429
vn 0.462881 -0.754160 -0.465816
vn 0.462977 -0.754040 -0.465914
vn 0.000000 -0.633045 -0.774115
vn 0.000001 0.073485 -0.997296
vn 0.000001 0.073464 -0.997298
vn 0.000000 -0.633052 -0.774109
vn -0.700304 0.114527 -0.704597
vn -0.700304 0.114527 -0.704597
vn -0.700304 0.114527 -0.704597
vn -0.700305 0.114527 -0.704597
vn -0.466438 -0.753307 -0.463642
vn -0.466424 -0.753324 -0.463628
vn -0.465811 -0.754152 -0.462898
vn -0.465909 -0.754032 -0.462995
vn 0.693275 -0.205707 0.690691
vn 0.693213 -0.206145 0.690623
vn 0.707103 -0.000941 0.707110
vn 0.707103 -0.000941 0.707110
vn -0.000001 -0.621485 0.783426
vn -0.000004 -0.116063 0.993242
vn -0.000004 -0.115445 0.993314
vn -0.000001 -0.621426 0.783473
vn 0.993314 -0.115445 0.000004
vn 0.783472 -0.621427 0.000000
vn 0.783426 -0.621485 0.000000
vn 0.993242 -0.116063 0.000004
vn -0.690696 -0.205704 0.693272
vn -0.690628 -0.206142 0.693209
vn -0.707104 -0.000940 0.707109
vn -0.707104 -0.000940 0.707109
vn -0.783426 -0.621485 -0.000000
vn -0.993242 -0.116063 -0.000004
vn -0.993314 -0.115445 -0.000004
vn -0.783472 -0.621427 -0.000000
vn 0.690696 -0.205704 -0.693272
vn 0.690628 -0.206142 -0.693209
vn 0.707104 -0.000940 -0.707109
vn 0.707104 -0.000940 -0.707109
vn 0.000004 -0.115445 -0.993314
vn 0.000001 -0.621426 -0.783473
vn 0.000001 -0.621485 -0.783426
vn 0.000004 -0.116063 -0.993242
vn -0.693275 -0.205707 -0.690691
vn -0.693213 -0.206145 -0.690623
vn -0.707103 -0.000941 -0.707110
vn -0.707103 -0.000941 -0.707110
vn -0.003488 0.836096 -0.548572
vn -0.006308 0.999960 -0.006358
vn 0.006358 0.999960 -0.006308
vn 0.003481 0.836112 -0.548548
vn -0.548547 0.836112 -0.003481
vn -0.009075 0.836419 -0.548015
vn -0.548256 0.836265 -0.008731
vn -0.548605 0.836075 0.003442
vn -0.006357 0.999960 0.006230
vn 0.431448 0.902135 0.002019
vn 0.428304 0.903617 0.005744
vn 0.428448 0.903549 -0.005670
vn 0.431563 0.902081 -0.001987
vn 0.005669 0.903545 0.428455
vn 0.001987 0.902077 0.431571
vn -0.002019 0.902132 0.431456
vn -0.005743 0.903613 0.428311
vn 0.002019 0.902132 -0.431456
vn 0.005743 0.903613 -0.428311
vn -0.005669 0.903545 -0.428455
vn -0.001987 0.902077 -0.431571
vn -0.548138 0.836341 0.008905
vn -0.008725 0.836259 0.548265
vn -0.003462 0.836081 0.548595
vn 0.003487 0.836094 0.548575
vn 0.006311 0.999961 0.006234
vn 0.548572 0.836096 -0.003488
vn 0.548547 0.836112 0.003481
vn 0.548015 0.836419 -0.009075
vn 0.008731 0.836265 -0.548257
vn -0.428448 0.903549 0.005670
vn -0.431563 0.902081 0.001987
vn -0.431448 0.902135 -0.002019
vn -0.428304 0.903617 -0.005744
vn 0.009071 0.836417 0.548018
vn 0.548256 0.836265 0.008731
vn 0.000000 0.081384 0.996683
vn 0.000000 0.081384 0.996683
vn 0.996683 0.081384 0.000000
vn 0.996683 0.081384 0.000000
vn -0.000000 0.081384 -0.996683
vn -0.000000 0.081384 -0.996683
vn -0.996683 0.081384 -0.000000
vn -0.996683 0.081384 -0.000000
vn 0.000000 0.000000 1.000000
vn 0.000000 0.000000 1.000000
vn 1.000000 -0.000001 0.000000
vn 1.000000 -0.000001 0.000000
vn 0.000000 0.000000 -1.000000
vn 0.000000 0.000000 -1.000000
vn -1.000000 -0.000001 0.000000
vn -1.000000 -0.000001 0.000000
vn 0.366520 0.855167 0.366542
vn 0.366520 0.855167 0.366542
vn 0.648018 -0.397569 0.649624
vn 0.648018 -0.397569 0.649624
vn -0.366522 0.855172 0.366527
vn -0.366522 0.855172 0.366527
vn -0.649630 -0.397569 0.648012
vn -0.649630 -0.397569 0.648012
vn 0.366522 0.855172 -0.366527
vn 0.366522 0.855172 -0.366527
vn 0.649630 -0.397569 -0.648012
vn 0.649630 -0.397569 -0.648012
vn -0.366520 0.855167 -0.366542
vn -0.366520 0.855167 -0.366542
vn -0.648018 -0.397569 -0.649624
vn -0.648018 -0.397569 -0.649624
s off
g pCube1
usemtl initialShadingGroup
f 1/40/1 26/45/2 25/46/3 44/47/4 43/48/5 5/37/6
f 2/43/7 1/40/8 9/39/9 10/44/10
f 4/1/11 3/5/12 12/6/13 11/2/14
f 5/37/15 6/41/16 14/42/17 13/38/18
f 6/131/19 42/132/20 41/133/21 36/130/22 35/129/23 7/134/24
f 7/7/25 8/4/26 15/3/27 16/8/28
f 2/137/29 10/138/30 12/139/31 3/140/32
f 6/141/33 7/142/34 16/143/35 14/144/36
f 4/1/37 11/2/38 15/3/39 8/4/40
f 5/37/41 13/38/42 9/39/43 1/40/44
s 1
f 1/40/45 2/43/46 27/50/47 26/45/48
s 2
f 5/37/49 43/48/50 42/49/51 6/41/52
s 3
f 7/7/53 35/14/54 34/11/55 8/4/56
s 4
f 19/10/57 18/13/58 3/5/59 4/1/60
s off
f 20/9/61 19/10/62 4/1/63 8/4/64 34/11/65 33/12/66
f 28/121/67 27/122/68 2/123/69 3/124/70 18/118/71 17/117/72
f 17/17/73 20/9/74 23/15/75 22/18/76
s 5
f 21/73/77 24/74/78 51/75/79 50/76/80
s 6
f 22/145/81 21/146/82 32/147/83 31/148/84
s 7
f 24/21/85 23/15/86 38/16/87 37/22/88
s off
f 25/46/89 28/55/90 31/56/91 30/52/92
s 8
f 29/79/93 32/77/94 55/78/95 54/80/96
s 9
f 30/52/97 29/57/98 48/58/99 47/51/100
s off
f 33/12/101 36/19/102 39/20/103 38/16/104
s 10
f 37/81/105 40/82/106 59/83/107 58/84/108
s 11
f 40/151/109 39/152/110 46/153/111 45/154/112
s off
f 41/53/113 44/47/114 47/51/115 46/54/116
s 12
f 45/85/117 48/87/118 63/88/119 62/86/120
s 5
f 49/29/121 52/27/122 68/34/123 71/35/124
s 6
f 50/157/125 49/158/126 56/159/127 55/160/128
s 7
f 52/27/129 51/26/130 58/25/131 57/28/132
s 8
f 53/63/133 56/66/134 82/71/135 85/67/136
s 9
f 54/61/137 53/63/138 64/64/139 63/62/140
s 10
f 57/28/141 60/32/142 72/36/143 75/33/144
s 11
f 60/163/145 59/164/146 62/165/147 61/166/148
s 12
f 61/69/149 64/64/150 89/68/151 92/72/152
s 15
f 65/89/153 67/90/154 81/91/155 80/92/156
f 66/93/157 65/89/153 70/97/158 69/99/159
f 67/90/154 66/93/157 77/100/160 76/94/161
s 16
f 69/99/162 68/107/163 75/113/164 74/108/165
f 71/105/166 70/97/167 83/98/168 82/106/169
f 73/109/170 72/114/171 92/115/172 91/110/173
s 15
f 74/108/174 73/109/175 78/101/176 77/100/160
f 76/94/161 78/101/176 86/102/177 88/95/178
f 79/96/179 81/91/155 88/95/178 87/103/180
f 80/92/156 79/96/179 84/104/181 83/98/182
s 16
f 85/112/183 84/104/184 90/111/185 89/116/186
s 15
f 87/103/180 86/102/177 91/110/187 90/111/188
s 6
f 31/148/84 28/149/189 17/150/190 22/145/81
s 7
f 23/15/86 20/9/191 33/12/192 38/16/87
s 11
f 39/152/110 36/155/193 41/156/194 46/153/111
s 9
f 47/51/100 44/47/195 25/46/196 30/52/97
s 6
f 32/77/83 21/73/82 50/76/125 55/78/128
s 7
f 24/21/85 37/22/88 58/25/131 51/26/130
s 11
f 40/82/109 45/85/112 62/86/147 59/83/146
s 9
f 48/58/99 29/57/98 54/61/137 63/62/140
s 15
f 66/93/157 69/99/159 74/108/174 77/100/160
f 70/97/158 65/89/153 80/92/156 83/98/182
f 84/104/181 79/96/179 87/103/180 90/111/188
f 78/101/176 73/109/175 91/110/187 86/102/177
f 81/91/155 67/90/154 76/94/161 88/95/178
s 6
f 56/159/127 49/158/126 71/161/197 82/162/198
s 7
f 52/27/129 57/28/132 75/33/199 68/34/200
s 11
f 60/163/145 61/166/148 92/167/201 72/168/202
s 9
f 64/64/139 53/63/138 85/67/203 89/68/204
s 4
f 17/117/205 18/118/58 19/119/57 20/120/206
s 5
f 21/23/77 22/18/207 23/15/208 24/21/78
s 1
f 25/125/209 26/126/48 27/122/47 28/121/210
s 8
f 29/57/93 30/52/211 31/56/212 32/60/94
s 3
f 33/127/213 34/128/55 35/129/54 36/130/214
s 10
f 37/22/105 38/16/215 39/20/216 40/24/106
s 2
f 41/133/217 42/132/51 43/135/50 44/136/218
s 12
f 45/59/117 46/54/219 47/51/220 48/58/118
s 5
f 49/29/121 50/30/80 51/26/79 52/27/122
s 8
f 53/63/133 54/61/96 55/65/95 56/66/134
s 10
f 57/28/141 58/25/108 59/31/107 60/32/142
s 12
f 61/69/149 62/70/120 63/62/119 64/64/150
s 15
f 65/89/153 66/93/157 67/90/154
s 16
f 68/107/163 69/99/162 70/97/167 71/105/166
f 72/114/171 73/109/170 74/108/165 75/113/164
s 15
f 76/94/161 77/100/160 78/101/176
f 79/96/179 80/92/156 81/91/155
s 16
f 82/106/169 83/98/168 84/104/184 85/112/183
s 15
f 86/102/177 87/103/180 88/95/178
s 16
f 89/116/186 90/111/185 91/110/173 92/115/172
