# This file uses meters as units for non-parametric coordinates.

mtllib wall.mtl
g default
v -0.127379 0.452173 20.136961
v 19.872620 0.452173 20.136961
v -0.127379 0.452173 -19.863039
v 19.872620 0.452173 -19.863039
v -2.451201 43.231209 20.136961
v 22.196442 43.231209 20.136961
v 22.196442 43.231209 -19.863039
v -2.451201 43.231209 -19.863039
v -0.127379 40.089951 20.136961
v -0.359738 40.730049 20.136961
v 19.872620 40.089951 20.136961
v 20.104980 40.730049 20.136961
v -0.127379 40.089951 -19.863039
v -0.359738 40.730049 -19.863039
v 19.872620 40.089951 -19.863039
v 20.104980 40.730049 -19.863039
v 19.872620 5.715400 20.136961
v 19.872620 4.758537 20.136961
v -0.127379 4.758536 20.136959
v -0.127379 5.715400 20.136959
v -0.127379 4.758537 -19.863041
v -0.127379 5.715400 -19.863041
v 19.872620 4.758536 -19.863041
v 19.872620 5.715400 -19.863041
vt 0.397861 0.394263
vt 0.397861 0.400622
vt 0.000488 0.400622
vt 0.397861 0.425469
vt 0.000488 0.425469
vt 0.401573 0.400622
vt 0.798946 0.394263
vt 0.798946 0.400622
vt 0.798946 0.425469
vt 0.401573 0.425469
vt 0.604420 0.426045
vt 0.847020 0.426045
vt 0.847020 0.819754
vt 0.604420 0.819754
vt 0.802657 0.000488
vt 0.999512 0.000488
vt 0.999512 0.394197
vt 0.802657 0.394197
vt 0.403718 0.822489
vt 0.602859 0.816189
vt 0.605146 0.822489
vt 0.625732 0.847107
vt 0.383132 0.847107
vt 0.023361 0.456964
vt 0.021074 0.450664
vt 0.222502 0.450664
vt 0.000488 0.426045
vt 0.243088 0.426045
vt 0.401573 0.052775
vt 0.798946 0.043269
vt 0.602859 0.468432
vt 0.406005 0.477850
vt 0.397861 0.043269
vt 0.000488 0.052775
vt 0.023361 0.804721
vt 0.220215 0.795303
vt 0.406005 0.426045
vt 0.602859 0.426045
vt 0.406005 0.468432
vt 0.220215 0.804721
vt 0.220215 0.847107
vt 0.023361 0.847107
vt 0.401573 0.000488
vt 0.798946 0.000488
vt 0.401573 0.043269
vt 0.000488 0.000488
vt 0.397861 0.000488
vt 0.000488 0.043269
vt 0.602859 0.477850
vt 0.406005 0.816189
vt 0.397861 0.052775
vt 0.000488 0.394263
vt 0.220215 0.456964
vt 0.023361 0.795303
vt 0.798946 0.052775
vt 0.401573 0.394263
vn 0.000000 1.000000 0.000000
vn 0.000000 1.000000 0.000000
vn 0.000000 1.000000 0.000000
vn 0.000000 1.000000 0.000000
vn 0.000000 -1.000000 0.000000
vn 0.000000 -1.000000 0.000000
vn 0.000000 -1.000000 0.000000
vn 0.000000 -1.000000 0.000000
vn -0.999978 -0.006636 0.000000
vn -0.803929 -0.594726 0.000000
vn -0.803929 -0.594726 0.000000
vn -0.999978 -0.006636 0.000000
vn 0.000000 0.000000 1.000000
vn -0.000000 -0.000000 1.000000
vn -0.000000 -0.000000 1.000000
vn 0.000000 0.000000 1.000000
vn 0.803929 -0.594726 0.000000
vn 0.999978 -0.006636 0.000000
vn 0.999978 -0.006636 0.000000
vn 0.803929 -0.594726 0.000000
vn 0.000000 0.000000 -1.000000
vn 0.000000 0.000000 -1.000000
vn 0.000000 0.000000 -1.000000
vn 0.000000 0.000000 -1.000000
vn 0.000000 0.000000 1.000000
vn 0.000000 0.000000 1.000000
vn 0.767140 -0.641480 0.000000
vn 0.767140 -0.641480 0.000000
vn 0.000000 0.000000 -1.000000
vn 0.000000 0.000000 -1.000000
vn -0.767140 -0.641480 0.000000
vn -0.767140 -0.641480 0.000000
vn 1.000000 -0.000000 0.000000
vn 1.000000 0.000000 0.000000
vn 1.000000 0.000000 0.000000
vn 1.000000 -0.000000 0.000000
vn -0.000000 0.000000 1.000000
vn -0.000000 -0.000000 1.000000
vn -0.000000 -0.000000 1.000000
vn -0.000000 0.000000 1.000000
vn -1.000000 -0.000000 0.000000
vn -1.000000 0.000000 0.000000
vn -1.000000 0.000000 0.000000
vn -1.000000 -0.000000 0.000000
vn -0.000000 -0.000000 -1.000000
vn -0.000000 0.000000 -1.000000
vn -0.000000 0.000000 -1.000000
vn -0.000000 -0.000000 -1.000000
vn -0.000000 0.000000 1.000000
vn -0.000000 0.000000 1.000000
vn 0.000000 -0.000000 -1.000000
vn 0.000000 -0.000000 -1.000000
vn 1.000000 0.000000 0.000000
vn 1.000000 0.000000 0.000000
vn -1.000000 -0.000000 0.000000
vn -1.000000 -0.000000 0.000000
s off
g pCube1
usemtl initialShadingGroup
f 5/11/1 6/12/2 7/13/3 8/14/4
f 3/15/5 4/16/6 2/17/7 1/18/8
s 1
f 9/1/9 10/2/10 14/3/11 13/52/12
s 2
f 10/19/13 9/50/14 11/20/15 12/21/16
s 3
f 12/6/17 11/56/18 15/7/19 16/8/20
s 4
f 13/24/21 14/25/22 16/26/23 15/53/24
s 2
f 10/19/13 12/21/16 6/22/25 5/23/26
s 3
f 12/6/17 16/8/20 7/9/27 6/10/28
s 4
f 16/26/23 14/25/22 8/27/29 7/28/30
s 1
f 14/3/11 10/2/10 5/4/31 8/5/32
s 3
f 17/29/33 18/45/34 23/30/35 24/55/36
s 2
f 18/31/37 17/49/38 20/32/39 19/39/40
s 1
f 19/33/41 20/51/42 22/34/43 21/48/44
s 4
f 21/35/45 22/54/46 24/36/47 23/40/48
s 2
f 1/37/49 2/38/50 18/31/37 19/39/40
s 4
f 21/35/45 23/40/48 4/41/51 3/42/52
s 3
f 2/43/53 4/44/54 23/30/35 18/45/34
s 1
f 3/46/55 1/47/56 19/33/41 21/48/44
s 2
f 20/32/39 17/49/38 11/20/15 9/50/14
s 1
f 22/34/43 20/51/42 9/1/9 13/52/12
s 4
f 13/24/21 15/53/24 24/36/47 22/54/46
s 3
f 17/29/33 24/55/36 15/7/19 11/56/18
