# This file uses centimeters as units for non-parametric coordinates.

mtllib Platform.mtl
g default
v -0.425002 -0.050000 0.425002
v -0.425002 -0.025003 0.450000
v -0.450000 -0.025003 0.425002
v 0.450000 -0.025003 0.425002
v 0.425002 -0.025003 0.450000
v 0.425002 -0.050000 0.425002
v -0.450000 0.025003 0.425002
v -0.425002 0.025003 0.450000
v -0.425002 0.050000 0.425002
v 0.425002 0.050000 0.425002
v 0.425002 0.025003 0.450000
v 0.450000 0.025003 0.425002
v -0.450000 0.025003 -0.425002
v -0.425002 0.050000 -0.425002
v -0.425002 0.025003 -0.450000
v 0.425002 0.025003 -0.450000
v 0.425002 0.050000 -0.425002
v 0.450000 0.025003 -0.425002
v -0.450000 -0.025003 -0.425002
v -0.425002 -0.025003 -0.450000
v -0.425002 -0.050000 -0.425002
v 0.425002 -0.050000 -0.425002
v 0.425002 -0.025003 -0.450000
v 0.450000 -0.025003 -0.425002
vt 0.553111 0.484367
vt 0.553111 0.015773
vt 0.580678 0.015773
vt 0.580678 0.484367
vt 0.539331 0.484367
vt 0.539331 0.015773
vt 0.580678 0.001992
vt 0.553111 0.001992
vt 0.594459 0.484367
vt 0.594459 0.015773
vt 0.553111 0.498147
vt 0.580678 0.498147
vt 0.015630 0.484367
vt 0.015630 0.015773
vt 0.043197 0.015773
vt 0.043197 0.484367
vt 0.001849 0.015773
vt 0.001849 0.484367
vt 0.015630 0.001992
vt 0.043197 0.001992
vt 0.056977 0.015773
vt 0.056977 0.484367
vt 0.043197 0.498147
vt 0.015630 0.498147
vt 0.457796 0.515633
vt 0.926390 0.515633
vt 0.926390 0.984227
vt 0.457796 0.984227
vt 0.457796 0.501853
vt 0.926390 0.501853
vt 0.457796 0.998008
vt 0.926390 0.998008
vt 0.063539 0.015773
vt 0.532133 0.015773
vt 0.532133 0.484367
vt 0.063539 0.484367
vt 0.063539 0.001992
vt 0.532133 0.001992
vt 0.063539 0.498147
vt 0.532133 0.498147
vt 0.424534 0.970447
vt 0.424534 0.501853
vt 0.452101 0.501853
vt 0.452101 0.970447
vt 0.391272 0.970446
vt 0.391272 0.501852
vt 0.418839 0.501852
vt 0.418839 0.970446
vn -0.707107 -0.707107 0.000000
vn -0.707107 -0.707107 0.000000
vn -0.707107 -0.707107 0.000000
vn -0.707107 -0.707107 0.000000
vn 0.000000 -0.707107 0.707107
vn 0.000000 -0.707107 0.707107
vn 0.000000 -0.707107 0.707107
vn 0.000000 -0.707107 0.707107
vn -0.707107 0.000000 0.707107
vn -0.707107 0.000000 0.707107
vn -0.707107 0.000000 0.707107
vn -0.707107 0.000000 0.707107
vn 0.707107 -0.707107 0.000000
vn 0.707107 -0.707107 0.000000
vn 0.707107 -0.707107 0.000000
vn 0.707107 -0.707107 0.000000
vn 0.707107 0.000000 0.707107
vn 0.707107 0.000000 0.707107
vn 0.707107 0.000000 0.707107
vn 0.707107 0.000000 0.707107
vn -0.707107 0.707107 0.000000
vn -0.707107 0.707107 0.000000
vn -0.707107 0.707107 0.000000
vn -0.707107 0.707107 0.000000
vn 0.000000 0.707107 0.707107
vn 0.000000 0.707107 0.707107
vn 0.000000 0.707107 0.707107
vn 0.000000 0.707107 0.707107
vn 0.707107 0.707107 0.000000
vn 0.707107 0.707107 0.000000
vn 0.707107 0.707107 0.000000
vn 0.707107 0.707107 0.000000
vn -0.707107 0.000000 -0.707107
vn -0.707107 0.000000 -0.707107
vn -0.707107 0.000000 -0.707107
vn -0.707107 0.000000 -0.707107
vn 0.000000 0.707107 -0.707107
vn 0.000000 0.707107 -0.707107
vn 0.000000 0.707107 -0.707107
vn 0.000000 0.707107 -0.707107
vn 0.707107 0.000000 -0.707107
vn 0.707107 0.000000 -0.707107
vn 0.707107 0.000000 -0.707107
vn 0.707107 0.000000 -0.707107
vn 0.000000 -0.707107 -0.707107
vn 0.000000 -0.707107 -0.707107
vn 0.000000 -0.707107 -0.707107
vn 0.000000 -0.707107 -0.707107
vn 0.000000 0.000000 1.000000
vn 0.000000 0.000000 1.000000
vn 0.000000 0.000000 1.000000
vn 0.000000 0.000000 1.000000
vn 0.000000 1.000000 0.000000
vn 0.000000 1.000000 0.000000
vn 0.000000 1.000000 0.000000
vn 0.000000 1.000000 0.000000
vn 0.000000 0.000000 -1.000000
vn 0.000000 0.000000 -1.000000
vn 0.000000 0.000000 -1.000000
vn 0.000000 0.000000 -1.000000
vn 0.000000 -1.000000 0.000000
vn 0.000000 -1.000000 0.000000
vn 0.000000 -1.000000 0.000000
vn 0.000000 -1.000000 0.000000
vn 1.000000 0.000000 0.000000
vn 1.000000 0.000000 0.000000
vn 1.000000 0.000000 0.000000
vn 1.000000 0.000000 0.000000
vn -1.000000 0.000000 0.000000
vn -1.000000 0.000000 0.000000
vn -1.000000 0.000000 0.000000
vn -1.000000 0.000000 0.000000
vn -0.577351 -0.577351 0.577349
vn -0.577351 -0.577351 0.577349
vn -0.577351 -0.577351 0.577349
vn 0.577351 -0.577351 0.577349
vn 0.577351 -0.577351 0.577349
vn 0.577351 -0.577351 0.577349
vn -0.577351 0.577351 0.577349
vn -0.577351 0.577351 0.577349
vn -0.577351 0.577351 0.577349
vn 0.577351 0.577351 0.577349
vn 0.577351 0.577351 0.577349
vn 0.577351 0.577351 0.577349
vn -0.577351 0.577351 -0.577349
vn -0.577351 0.577351 -0.577349
vn -0.577351 0.577351 -0.577349
vn 0.577351 0.577351 -0.577349
vn 0.577351 0.577351 -0.577349
vn 0.577351 0.577351 -0.577349
vn -0.577351 -0.577351 -0.577349
vn -0.577351 -0.577351 -0.577349
vn -0.577351 -0.577351 -0.577349
vn 0.577351 -0.577351 -0.577349
vn 0.577351 -0.577351 -0.577349
vn 0.577351 -0.577351 -0.577349
s off
g pCube1
usemtl initialShadingGroup
f 1/17/1 3/14/2 19/13/3 21/18/4
f 2/39/5 1/36/6 6/35/7 5/40/8
f 3/14/9 2/19/10 8/20/11 7/15/12
f 4/1/13 6/5/14 22/6/15 24/2/16
f 5/11/17 4/1/18 12/4/19 11/12/20
f 7/15/21 9/21/22 14/22/23 13/16/24
f 9/25/25 8/29/26 11/30/27 10/26/28
f 10/9/29 12/4/30 18/3/31 17/10/32
f 13/16/33 15/23/34 20/24/35 19/13/36
f 15/31/37 14/28/38 17/27/39 16/32/40
f 16/7/41 18/3/42 24/2/43 23/8/44
f 21/33/45 20/37/46 23/38/47 22/34/48
f 2/41/49 5/42/50 11/43/51 8/44/52
f 9/25/53 10/26/54 17/27/55 14/28/56
f 15/45/57 16/46/58 23/47/59 20/48/60
f 21/33/61 22/34/62 6/35/63 1/36/64
f 4/1/65 24/2/66 18/3/67 12/4/68
f 19/13/69 3/14/70 7/15/71 13/16/72
f 1/17/73 2/19/74 3/14/75
f 4/1/76 5/11/77 6/5/78
f 7/15/79 8/20/80 9/21/81
f 10/9/82 11/12/83 12/4/84
f 13/16/85 14/22/86 15/23/87
f 16/7/88 17/10/89 18/3/90
f 19/13/91 20/24/92 21/18/93
f 22/6/94 23/8/95 24/2/96
